<?xml version="1.0" encoding="UTF-8" standalone="no"?>
<!DOCTYPE svg PUBLIC "-//W3C//DTD SVG 1.1//EN" "http://www.w3.org/Graphics/SVG/1.1/DTD/svg11.dtd">
<svg width="100%" height="100%" viewBox="0 0 662 532" version="1.1" xmlns="http://www.w3.org/2000/svg" xmlns:xlink="http://www.w3.org/1999/xlink" xml:space="preserve" xmlns:serif="http://www.serif.com/" style="fill-rule:evenodd;clip-rule:evenodd;stroke-linejoin:round;stroke-miterlimit:2;">
    <rect id="Plan-de-travail1" serif:id="Plan de travail1" x="0" y="0" width="661.929" height="532" style="fill:none;"/>
    <g id="Plan-de-travail11" serif:id="Plan de travail1">
        <g transform="matrix(1,0,0,1,0,-0.001)">
            <g id="LEFT" transform="matrix(0.942431,0,0,0.942431,22.0677,15.3941)">
                <g>
                    <g>
                        <g transform="matrix(1,0,0,1,-38.6875,-134.312)">
                            <path d="M213.5,665.688C117.063,665.688 38.688,546.5 38.688,400C38.688,253.5 117.125,134.313 213.5,134.313C309.875,134.313 388.313,253.5 388.313,400C388.313,546.5 309.875,665.688 213.5,665.688Z" style="fill:white;fill-rule:nonzero;"/>
                        </g>
                        <g transform="matrix(0.465499,0,0,0.416373,-186.231,32.8159)">
                            <path d="M586.5,665.688C490.125,665.688 411.688,546.5 411.688,400C411.688,253.5 490.125,134.313 586.5,134.313C682.875,134.313 761.313,253.5 761.313,400C761.313,546.5 682.938,665.688 586.5,665.688Z" style="fill-rule:nonzero;"/>
                        </g>
                        <g transform="matrix(1,0,0,1,-418.348,-134.312)">
                            <path d="M586.5,665.688C490.125,665.688 411.688,546.5 411.688,400C411.688,253.5 490.125,134.313 586.5,134.313C682.875,134.313 761.313,253.5 761.313,400C761.313,546.5 682.938,665.688 586.5,665.688Z" style="fill:none;fill-rule:nonzero;stroke:black;stroke-width:31.83px;"/>
                        </g>
                        <g transform="matrix(0.960493,0.278306,-0.319244,1.10178,43.1858,-28.6371)">
                            <ellipse cx="53.221" cy="147.886" rx="29.908" ry="33.433" style="fill:white;"/>
                        </g>
                    </g>
                </g>
            </g>
            <g id="RIGHT" transform="matrix(0.942431,0,0,0.942431,5.07549,15.3941)">
                <g transform="matrix(1,0,0,1,-82.0685,-134.312)">
                    <path d="M586.5,665.688C490.125,665.688 411.688,546.5 411.688,400C411.688,253.5 490.125,134.313 586.5,134.313C682.875,134.313 761.313,253.5 761.313,400C761.313,546.5 682.938,665.688 586.5,665.688Z" style="fill:white;fill-rule:nonzero;"/>
                </g>
                <g transform="matrix(0.465499,0,0,0.416373,147.252,32.8159)">
                    <path d="M586.5,665.688C490.125,665.688 411.688,546.5 411.688,400C411.688,253.5 490.125,134.313 586.5,134.313C682.875,134.313 761.313,253.5 761.313,400C761.313,546.5 682.938,665.688 586.5,665.688Z" style="fill-rule:nonzero;"/>
                </g>
                <g transform="matrix(1,0,0,1,-82.0685,-134.312)">
                    <path d="M586.5,665.688C490.125,665.688 411.688,546.5 411.688,400C411.688,253.5 490.125,134.313 586.5,134.313C682.875,134.313 761.313,253.5 761.313,400C761.313,546.5 682.938,665.688 586.5,665.688Z" style="fill:none;fill-rule:nonzero;stroke:black;stroke-width:31.83px;"/>
                </g>
                <g transform="matrix(0.960493,0.278306,-0.319244,1.10178,376.193,-28.6371)">
                    <ellipse cx="53.221" cy="147.886" rx="29.908" ry="33.433" style="fill:white;"/>
                </g>
            </g>
        </g>
    </g>
</svg>
