<?xml version="1.0" encoding="UTF-8" standalone="no"?>
<!DOCTYPE svg PUBLIC "-//W3C//DTD SVG 1.1//EN" "http://www.w3.org/Graphics/SVG/1.1/DTD/svg11.dtd">
<svg width="100%" height="100%" viewBox="0 0 358 358" version="1.1" xmlns="http://www.w3.org/2000/svg" xmlns:xlink="http://www.w3.org/1999/xlink" xml:space="preserve" xmlns:serif="http://www.serif.com/" style="fill-rule:evenodd;clip-rule:evenodd;stroke-linejoin:round;stroke-miterlimit:2;">
    <g transform="matrix(1,0,0,1,-2416.7,0)">
        <rect id="spotify-white-icon" x="2416.7" y="0" width="357.573" height="357.573" style="fill:none;"/>
        <g id="spotify-white-icon1" serif:id="spotify-white-icon">
            <g id="Tracé_66" transform="matrix(13.4679,0,0,13.4679,2403.24,-10.7743)">
                <path d="M14.275,0.8C14.275,0.8 14.274,0.8 14.274,0.8C6.992,0.8 0.999,6.793 0.999,14.075C0.999,21.357 6.992,27.35 14.274,27.35C21.556,27.35 27.549,21.357 27.549,14.075C27.547,6.794 21.556,0.802 14.275,0.8ZM20.375,19.955C20.225,20.201 19.957,20.352 19.669,20.352C19.518,20.352 19.369,20.311 19.24,20.232C16.125,18.325 12.195,17.889 7.566,18.951C7.506,18.965 7.445,18.971 7.383,18.971C6.929,18.971 6.555,18.597 6.555,18.143C6.555,17.757 6.824,17.42 7.2,17.335C12.265,16.185 16.6,16.68 20.1,18.82C20.486,19.057 20.609,19.569 20.373,19.955L20.375,19.955ZM22,16.331C21.7,16.813 21.057,16.965 20.574,16.666C16.545,14.42 11.784,13.864 7.346,15.123C7.247,15.154 7.144,15.169 7.04,15.169C6.472,15.169 6.004,14.701 6.004,14.133C6.004,13.68 6.302,13.277 6.735,13.143C11.74,11.697 17.122,12.331 21.654,14.9C22.14,15.199 22.296,15.843 22,16.331ZM23.834,12.139C23.612,12.517 23.205,12.75 22.767,12.75C22.544,12.75 22.325,12.69 22.134,12.576C17.855,10.028 10.8,9.8 6.706,11.033C6.586,11.071 6.46,11.09 6.334,11.09C5.655,11.09 5.095,10.531 5.095,9.851C5.095,9.3 5.463,8.812 5.993,8.66C10.679,7.234 18.481,7.51 23.4,10.436C23.779,10.657 24.013,11.065 24.013,11.504C24.013,11.728 23.953,11.947 23.838,12.139L23.834,12.139Z" style="fill:white;fill-rule:nonzero;"/>
            </g>
        </g>
    </g>
</svg>
