<?xml version="1.0" encoding="UTF-8" standalone="no"?>
<!DOCTYPE svg PUBLIC "-//W3C//DTD SVG 1.1//EN" "http://www.w3.org/Graphics/SVG/1.1/DTD/svg11.dtd">
<svg width="100%" height="100%" viewBox="0 0 358 358" version="1.1" xmlns="http://www.w3.org/2000/svg" xmlns:xlink="http://www.w3.org/1999/xlink" xml:space="preserve" xmlns:serif="http://www.serif.com/" style="fill-rule:evenodd;clip-rule:evenodd;stroke-linejoin:round;stroke-miterlimit:2;">
    <g transform="matrix(1,0,0,1,-3960.63,0)">
        <g transform="matrix(1,0,0,1,1543.93,0)">
            <rect id="twitter-white-icon" x="2416.7" y="0" width="357.573" height="357.573" style="fill:none;"/>
            <g id="twitter-white-icon1" serif:id="twitter-white-icon">
                <g id="Groupe_37" transform="matrix(10.5449,0,0,10.5449,2415.74,-0.388892)">
                    <g id="Groupe_36">
                        <path id="Tracé_69" d="M34,6.5C32.7,7.1 31.4,7.4 30,7.6C31.5,6.7 32.6,5.4 33.1,3.7C31.7,4.5 30.2,5.1 28.7,5.4C26.1,2.6 21.7,2.4 18.9,5.1C17.5,6.4 16.7,8.3 16.7,10.2C16.7,10.7 16.7,11.3 16.9,11.8C11.1,11.5 5.9,8.8 2.4,4.5C0.5,7.7 1.5,11.8 4.5,13.8C3.4,13.8 2.3,13.5 1.4,12.9L1.4,13C1.4,16.3 3.7,19.2 7,19.8C6.4,20 5.8,20 5.2,20C4.8,20 4.3,20 3.9,19.9C4.8,22.7 7.4,24.7 10.4,24.8C7.9,26.7 4.9,27.8 1.8,27.8C1.2,27.8 0.7,27.8 0.1,27.7C3.3,29.8 7,30.8 10.8,30.8C23.6,30.8 30.6,20.2 30.6,11L30.6,10.1C31.9,9.1 33.1,7.9 34,6.5Z" style="fill:white;fill-rule:nonzero;"/>
                    </g>
                </g>
            </g>
        </g>
    </g>
</svg>
