<svg width="737" height="217" viewBox="0 0 737 217" fill="none" xmlns="http://www.w3.org/2000/svg">
<path d="M26.0908 2.89333C39.0395 2.89333 48.7994 5.78666 55.3704 11.5733C62.1347 17.36 65.5169 26.6187 65.5169 39.3493V114.287C65.5169 127.596 61.4583 137.433 53.3412 143.799C45.4173 150.164 35.0776 153.347 22.3221 153.347H21.7423V214.107H0V2.89333H26.0908ZM43.7745 46.5827C43.7745 37.324 42.325 31.0551 39.4261 27.776C36.5271 24.304 31.4056 22.568 24.0615 22.568H21.7423V133.672H26.0908C32.8551 133.672 37.4934 132.322 40.0059 129.621C42.5183 126.921 43.7745 122.774 43.7745 117.18V46.5827Z" fill="#F50000"/>
<path d="M138.758 207.452C132.38 213.817 124.07 217 113.827 217C103.39 217 95.5631 214.396 90.345 209.188C85.3201 203.98 82.8077 195.3 82.8077 183.148V39.06C82.8077 25.7507 85.9965 15.9133 92.3743 9.54799C98.752 3.18266 107.062 0 117.305 0C127.742 0 135.472 2.604 140.497 7.81199C145.715 13.02 148.324 21.7 148.324 33.852V177.94C148.324 191.249 145.136 201.087 138.758 207.452ZM123.393 24.5933C121.461 21.3142 118.755 19.6747 115.276 19.6747C111.218 19.6747 108.415 21.0249 106.869 23.7253C105.323 26.4258 104.55 30.5729 104.55 36.1667V173.311C104.55 182.762 105.613 189.128 107.739 192.407C110.058 195.686 113.247 197.325 117.305 197.325C120.784 197.325 123.2 195.975 124.553 193.275C125.906 190.574 126.582 186.427 126.582 180.833V43.6893C126.582 34.2378 125.519 27.8724 123.393 24.5933Z" fill="#F50000"/>
<path d="M187.358 2.89333V195.3H218.667V214.107H165.615V2.89333H187.358Z" fill="#F50000"/>
<path d="M255.753 2.89333H281.844L251.695 155.661V214.107H229.952V155.372L201.252 2.89333H225.604L237.2 83.0387L242.708 134.251H245.897L255.753 2.89333Z" fill="#F50000"/>
<path d="M316.555 2.89333C329.503 2.89333 339.263 5.78666 345.834 11.5733C352.598 17.36 355.981 26.6187 355.981 39.3493V114.287C355.981 127.596 351.922 137.433 343.805 143.799C335.881 150.164 325.541 153.347 312.786 153.347H312.206V214.107H290.464V2.89333H316.555ZM334.238 46.5827C334.238 37.324 332.789 31.0551 329.89 27.776C326.991 24.304 321.869 22.568 314.525 22.568H312.206V133.672H316.555C323.319 133.672 327.957 132.322 330.47 129.621C332.982 126.921 334.238 122.774 334.238 117.18V46.5827Z" fill="#F50000"/>
<path d="M419.655 149.007V2.89333H441.397V214.107H419.655V154.793H395.014V214.107H373.271V2.89333H395.014V149.007H419.655Z" fill="#F50000"/>
<path d="M514.832 207.452C508.454 213.817 500.144 217 489.901 217C479.465 217 471.637 214.396 466.419 209.188C461.394 203.98 458.882 195.3 458.882 183.148V39.06C458.882 25.7507 462.071 15.9133 468.448 9.54799C474.826 3.18266 483.137 0 493.38 0C503.816 0 511.547 2.604 516.571 7.81199C521.79 13.02 524.399 21.7 524.399 33.852V177.94C524.399 191.249 521.21 201.087 514.832 207.452ZM499.467 24.5933C497.535 21.3142 494.829 19.6747 491.35 19.6747C487.292 19.6747 484.489 21.0249 482.943 23.7253C481.397 26.4258 480.624 30.5729 480.624 36.1667V173.311C480.624 182.762 481.687 189.128 483.813 192.407C486.132 195.686 489.321 197.325 493.38 197.325C496.858 197.325 499.274 195.975 500.627 193.275C501.98 190.574 502.656 186.427 502.656 180.833V43.6893C502.656 34.2378 501.593 27.8724 499.467 24.5933Z" fill="#F50000"/>
<path d="M588.073 111.683L586.044 2.89333H606.916V214.107H586.334L558.503 38.4813H555.025L559.083 105.317L560.823 214.107H540.24V2.89333H560.823L588.653 178.519H592.132L588.073 111.683Z" fill="#F50000"/>
<path d="M644.711 2.89333V214.107H622.968V2.89333H644.711Z" fill="#F50000"/>
<path d="M737 214.107H712.649L705.111 154.793H683.369L679.6 214.107H653.51L685.398 32.116L672.933 2.89333H701.633L737 214.107ZM690.326 49.1867L683.949 149.007H704.242L699.023 107.053L693.515 49.1867H690.326Z" fill="#F50000"/>
</svg>
