<?xml version="1.0" encoding="UTF-8" standalone="no"?>
<!DOCTYPE svg PUBLIC "-//W3C//DTD SVG 1.1//EN" "http://www.w3.org/Graphics/SVG/1.1/DTD/svg11.dtd">
<svg width="100%" height="100%" viewBox="0 0 737 217" version="1.1" xmlns="http://www.w3.org/2000/svg" xmlns:xlink="http://www.w3.org/1999/xlink" xml:space="preserve" xmlns:serif="http://www.serif.com/" style="fill-rule:evenodd;clip-rule:evenodd;stroke-linejoin:round;stroke-miterlimit:2;">
    <path d="M26.091,2.893C39.039,2.893 48.799,5.787 55.37,11.573C62.135,17.36 65.517,26.619 65.517,39.349L65.517,114.287C65.517,127.596 61.458,137.433 53.341,143.799C45.417,150.164 35.078,153.347 22.322,153.347L21.742,153.347L21.742,214.107L0,214.107L0,2.893L26.091,2.893ZM43.775,46.583C43.775,37.324 42.325,31.055 39.426,27.776C36.527,24.304 31.406,22.568 24.062,22.568L21.742,22.568L21.742,133.672L26.091,133.672C32.855,133.672 37.493,132.322 40.006,129.621C42.518,126.921 43.775,122.774 43.775,117.18L43.775,46.583Z" style="fill:white;fill-rule:nonzero;"/>
    <path d="M138.758,207.452C132.38,213.817 124.07,217 113.827,217C103.39,217 95.563,214.396 90.345,209.188C85.32,203.98 82.808,195.3 82.808,183.148L82.808,39.06C82.808,25.751 85.997,15.913 92.374,9.548C98.752,3.183 107.062,0 117.305,0C127.742,0 135.472,2.604 140.497,7.812C145.715,13.02 148.324,21.7 148.324,33.852L148.324,177.94C148.324,191.249 145.136,201.087 138.758,207.452ZM123.393,24.593C121.461,21.314 118.755,19.675 115.276,19.675C111.218,19.675 108.415,21.025 106.869,23.725C105.323,26.426 104.55,30.573 104.55,36.167L104.55,173.311C104.55,182.762 105.613,189.128 107.739,192.407C110.058,195.686 113.247,197.325 117.305,197.325C120.784,197.325 123.2,195.975 124.553,193.275C125.906,190.574 126.582,186.427 126.582,180.833L126.582,43.689C126.582,34.238 125.519,27.872 123.393,24.593Z" style="fill:white;fill-rule:nonzero;"/>
    <path d="M187.358,2.893L187.358,195.3L218.667,195.3L218.667,214.107L165.615,214.107L165.615,2.893L187.358,2.893Z" style="fill:white;fill-rule:nonzero;"/>
    <path d="M255.753,2.893L281.844,2.893L251.695,155.661L251.695,214.107L229.952,214.107L229.952,155.372L201.252,2.893L225.604,2.893L237.2,83.039L242.708,134.251L245.897,134.251L255.753,2.893Z" style="fill:white;fill-rule:nonzero;"/>
    <path d="M316.555,2.893C329.503,2.893 339.263,5.787 345.834,11.573C352.598,17.36 355.981,26.619 355.981,39.349L355.981,114.287C355.981,127.596 351.922,137.433 343.805,143.799C335.881,150.164 325.541,153.347 312.786,153.347L312.206,153.347L312.206,214.107L290.464,214.107L290.464,2.893L316.555,2.893ZM334.238,46.583C334.238,37.324 332.789,31.055 329.89,27.776C326.991,24.304 321.869,22.568 314.525,22.568L312.206,22.568L312.206,133.672L316.555,133.672C323.319,133.672 327.957,132.322 330.47,129.621C332.982,126.921 334.238,122.774 334.238,117.18L334.238,46.583Z" style="fill:white;fill-rule:nonzero;"/>
    <path d="M419.655,149.007L419.655,2.893L441.397,2.893L441.397,214.107L419.655,214.107L419.655,154.793L395.014,154.793L395.014,214.107L373.271,214.107L373.271,2.893L395.014,2.893L395.014,149.007L419.655,149.007Z" style="fill:white;fill-rule:nonzero;"/>
    <path d="M514.832,207.452C508.454,213.817 500.144,217 489.901,217C479.465,217 471.637,214.396 466.419,209.188C461.394,203.98 458.882,195.3 458.882,183.148L458.882,39.06C458.882,25.751 462.071,15.913 468.448,9.548C474.826,3.183 483.137,0 493.38,0C503.816,0 511.547,2.604 516.571,7.812C521.79,13.02 524.399,21.7 524.399,33.852L524.399,177.94C524.399,191.249 521.21,201.087 514.832,207.452ZM499.467,24.593C497.535,21.314 494.829,19.675 491.35,19.675C487.292,19.675 484.489,21.025 482.943,23.725C481.397,26.426 480.624,30.573 480.624,36.167L480.624,173.311C480.624,182.762 481.687,189.128 483.813,192.407C486.132,195.686 489.321,197.325 493.38,197.325C496.858,197.325 499.274,195.975 500.627,193.275C501.98,190.574 502.656,186.427 502.656,180.833L502.656,43.689C502.656,34.238 501.593,27.872 499.467,24.593Z" style="fill:white;fill-rule:nonzero;"/>
    <path d="M588.073,111.683L586.044,2.893L606.916,2.893L606.916,214.107L586.334,214.107L558.503,38.481L555.025,38.481L559.083,105.317L560.823,214.107L540.24,214.107L540.24,2.893L560.823,2.893L588.653,178.519L592.132,178.519L588.073,111.683Z" style="fill:white;fill-rule:nonzero;"/>
    <rect x="622.968" y="2.893" width="21.743" height="211.214" style="fill:white;fill-rule:nonzero;"/>
    <path d="M737,214.107L712.649,214.107L705.111,154.793L683.369,154.793L679.6,214.107L653.51,214.107L685.398,32.116L672.933,2.893L701.633,2.893L737,214.107ZM690.326,49.187L683.949,149.007L704.242,149.007L699.023,107.053L693.515,49.187L690.326,49.187Z" style="fill:white;fill-rule:nonzero;"/>
</svg>
